HIERARCHY
ROOT Hips
{
    OFFSET 0.000000 0.000000 0.000000
    CHANNELS 6 Xposition Yposition Zposition Zrotation Xrotation Yrotation
    JOINT Spine
    {
        OFFSET -0.000000 7.236184 0.000000
        CHANNELS 3 Zrotation Xrotation Yrotation
        JOINT Spine1
        {
            OFFSET -0.000000 20.420147 0.000000
            CHANNELS 3 Zrotation Xrotation Yrotation
            JOINT Neck
            {
                OFFSET -0.000000 20.336288 1.848754
                CHANNELS 3 Zrotation Xrotation Yrotation
                JOINT Head
                {
                    OFFSET -0.000000 12.354461 -1.764923
                    CHANNELS 3 Zrotation Xrotation Yrotation
                    End Site
                    {
                        OFFSET -0.000000 22.061537 0.000000
                    }
                }
            }
            JOINT LeftShoulder
            {
                OFFSET 3.573296 18.396038 -0.314103
                CHANNELS 3 Zrotation Xrotation Yrotation
                JOINT LeftArm
                {
                    OFFSET 10.880760 0.000000 0.000000
                    CHANNELS 3 Zrotation Xrotation Yrotation
                    JOINT LeftForeArm
                    {
                        OFFSET 27.185530 0.000000 0.000000
                        CHANNELS 3 Zrotation Xrotation Yrotation
                        JOINT LeftHand
                        {
                            OFFSET 27.825975 0.000000 0.000000
                            CHANNELS 3 Zrotation Xrotation Yrotation
                            End Site
                            {
                                OFFSET 13.236923 0.000000 0.000000
                            }
                        }
                    }
                }
            }
            JOINT RightShoulder
            {
                OFFSET -3.474926 18.396038 -0.314103
                CHANNELS 3 Zrotation Xrotation Yrotation
                JOINT RightArm
                {
                    OFFSET -10.880760 0.000000 0.000000
                    CHANNELS 3 Zrotation Xrotation Yrotation
                    JOINT RightForeArm
                    {
                        OFFSET -27.185530 0.000000 0.000000
                        CHANNELS 3 Zrotation Xrotation Yrotation
                        JOINT RightHand
                        {
                            OFFSET -27.825975 0.000000 0.000000
                            CHANNELS 3 Zrotation Xrotation Yrotation
                            End Site
                            {
                                OFFSET -13.236923 0.000000 0.000000
                            }
                        }
                    }
                }
            }
        }
    }
    JOINT LeftUpLeg
    {
        OFFSET 8.824615 0.000000 0.000000
        CHANNELS 3 Zrotation Xrotation Yrotation
        JOINT LeftLeg
        {
            OFFSET -0.000000 -35.111282 0.000000
            CHANNELS 3 Zrotation Xrotation Yrotation
            JOINT LeftFoot
            {
                OFFSET -0.000000 -42.324711 0.000000
                CHANNELS 3 Zrotation Xrotation Yrotation
                JOINT LeftToeBase
                {
                    OFFSET -0.000000 -5.735999 13.236923
                    CHANNELS 3 Zrotation Xrotation Yrotation
                    End Site
                    {
                        OFFSET -0.000000 0.000000 3.529846
                    }
                }
            }
        }
    }
    JOINT RightUpLeg
    {
        OFFSET -8.824615 0.000000 0.000000
        CHANNELS 3 Zrotation Xrotation Yrotation
        JOINT RightLeg
        {
            OFFSET -0.000000 -35.111282 0.000000
            CHANNELS 3 Zrotation Xrotation Yrotation
            JOINT RightFoot
            {
                OFFSET -0.000000 -42.324711 0.000000
                CHANNELS 3 Zrotation Xrotation Yrotation
                JOINT RightToeBase
                {
                    OFFSET -0.000000 -5.735999 13.236923
                    CHANNELS 3 Zrotation Xrotation Yrotation
                    End Site
                    {
                        OFFSET -0.000000 0.000000 3.529846
                    }
                }
            }
        }
    }
}
MOTION
Frames:    12
Frame Time:    0.008333
-21.168753    82.845673    92.536781    -13.075364    20.912157    100.232559    3.082023    -9.468626    0.718541    6.949835    8.918524    -0.079212    4.268204    17.861786    16.043955    -17.555380    9.024555    15.722935    2.653429    17.536251    3.027509    -45.898216    19.640507    -11.758058    28.249844    -30.143177    -119.600174    51.541378    14.801152    -13.231389    -3.032394    11.389740    -1.923604    33.864994    24.410843    32.768929    -13.891852    -34.879608    123.129616    -27.951992    -8.601141    -9.604225    -0.205188    -29.655933    -1.143964    -12.440548    35.170673    31.913588    -10.573730    22.167282    -21.328747    -1.322854    -5.416693    1.481422    -23.649088    -27.831110    -3.245142    1.198111    35.463577    8.647111    -9.132126    -10.916217    -19.797695    -0.792659    -3.013302    0.860968    
-21.077282    82.697296    92.619431    -13.010208    20.461401    99.750862    2.931445    -9.485132    0.652079    7.334571    8.871650    -0.160812    4.526134    17.758394    16.351871    -17.487022    8.884227    16.028751    2.889038    17.491491    2.958667    -46.180779    19.863352    -11.303092    28.490381    -30.178493    -119.129303    51.657238    14.734997    -13.179952    -2.964978    11.518936    -2.027717    33.655529    24.611223    32.881020    -13.997506    -34.936401    123.608383    -28.428299    -8.224492    -9.302961    -0.506414    -28.781246    -1.837495    -11.618032    34.072151    31.311867    -10.680511    20.733992    -20.448460    -1.430911    -5.930408    1.604075    -22.871977    -28.161823    -2.717429    1.201603    35.733471    8.627279    -9.227634    -11.019270    -19.830994    -0.808614    -3.015381    0.878300    
-20.995348    82.564079    92.706192    -12.957374    20.030968    99.277435    2.782338    -9.495970    0.582167    7.696975    8.826596    -0.243665    4.753862    17.670298    16.664139    -17.419495    8.741276    16.338665    3.114549    17.427216    2.885178    -46.450588    20.088528    -10.819754    28.807665    -30.195843    -118.485725    51.740135    14.656874    -13.122416    -2.921471    11.638882    -2.115957    33.474239    24.807888    32.983246    -14.093800    -34.962257    124.075050    -28.843344    -7.834024    -9.003145    -0.711568    -27.999918    -2.448680    -10.893992    33.114323    30.797749    -10.748425    19.383259    -19.599226    -1.554839    -6.357230    1.744498    -22.130669    -28.467604    -2.229090    1.211465    35.952988    8.628718    -9.307505    -11.106870    -19.852039    -0.838688    -3.012351    0.910961    
-20.929310    82.457458    92.789955    -12.919518    19.654552    98.853745    2.649060    -9.498850    0.515809    8.006823    8.784867    -0.320078    4.927825    17.601662    16.953524    -17.352312    8.606447    16.625769    3.311156    17.350372    2.814495    -46.679985    20.300087    -10.360586    29.169930    -30.186403    -117.723625    51.785599    14.571059    -13.061715    -2.904739    11.735468    -2.180199    33.335983    24.994383    33.057892    -14.182122    -34.963177    124.492683    -29.171949    -7.452948    -8.726213    -0.820671    -27.369484    -2.932261    -10.302896    32.352726    30.385395    -10.780099    18.263191    -18.865095    -1.678802    -6.686666    1.884838    -21.487455    -28.720465    -1.823617    1.228177    36.100964    8.653421    -9.366186    -11.170500    -19.862165    -0.880704    -3.004465    0.956587    
-20.870214    82.363472    92.882065    -12.890788    19.280258    98.425407    2.514755    -9.493410    0.445344    8.305498    8.739618    -0.399155    5.076836    17.543972    17.257408    -17.286909    8.457850    16.926104    3.505395    17.252377    2.738462    -46.894245    20.528269    -9.877804    29.619345    -30.139355    -116.741562    51.804157    14.462867    -12.989372    -2.911549    11.820051    -2.228844    33.220669    25.204567    33.107643    -14.284340    -34.949890    124.917351    -29.470179    -7.022409    -8.432275    -0.862823    -26.804152    -3.359483    -9.746629    31.673471    30.002131    -10.789899    17.251333    -18.159639    -1.813508    -6.984369    2.037308    -20.856882    -28.953526    -1.448331    1.255229    36.196289    8.705196    -9.412793    -11.217837    -19.865442    -0.940020    -2.990524    1.020993    
-20.834270    82.307556    92.957298    -12.878281    19.009892    98.110680    2.416071    -9.479501    0.391317    8.510312    8.701076    -0.457330    5.158896    17.508036    17.491821    -17.236721    8.335451    17.156631    3.646724    17.161293    2.678245    -47.031189    20.713202    -9.515058    30.027931    -30.061861    -115.811615    51.795746    14.361283    -12.927653    -2.938098    11.871630    -2.250604    33.158508    25.386723    33.117653    -14.379824    -34.934235    125.233559    -29.666670    -6.655516    -8.200582    -0.836694    -26.459970    -3.624840    -9.370835    31.258020    29.744574    -10.788676    16.630848    -17.683659    -1.916693    -7.188784    2.154128    -20.412231    -29.105844    -1.205906    1.285908    36.215153    8.769128    -9.436042    -11.236049    -19.863194    -1.000058    -2.974680    1.086177    
-20.801071    82.256317    93.059059    -12.876355    18.686857    97.728531    2.294190    -9.450436    0.324488    8.739521    8.647494    -0.526615    5.222428    17.465664    17.791443    -17.167543    8.169449    17.449957    3.819983    17.026522    2.599483    -47.167263    20.963905    -9.074711    30.621799    -29.900469    -114.405655    51.765369    14.205266    -12.845328    -2.996291    11.925272    -2.262472    33.106930    25.650902    33.097466    -14.529907    -34.920151    125.623375    -29.889301    -6.141106    -7.895998    -0.739980    -26.142612    -3.896990    -8.952148    30.867926    29.459381    -10.784412    16.035492    -17.161798    -2.043686    -7.426250    2.297970    -19.895813    -29.271816    -0.952707    1.338229    36.174671    8.878222    -9.451410    -11.236489    -19.854963    -1.093856    -2.947911    1.188004    
-20.790369    82.238770    93.154137    -12.893691    18.440624    97.427872    2.192840    -9.407325    0.272107    8.890597    8.592073    -0.577196    5.226561    17.428808    18.048241    -17.104111    8.013329    17.699091    3.964710    16.887388    2.528426    -47.230083    21.200319    -8.738900    31.222925    -29.671246    -112.909843    51.720097    14.037102    -12.776914    -3.075544    11.960585    -2.255286    33.097374    25.926151    33.039673    -14.702124    -34.924992    125.939026    -30.062296    -5.637273    -7.624555    -0.577777    -26.042168    -4.056276    -8.679592    30.727840    29.275476    -10.787766    15.778807    -16.832474    -2.140358    -7.607733    2.407571    -19.522694    -29.381857    -0.807854    1.401533    36.057293    9.002804    -9.447115    -11.206346    -19.840357    -1.195532    -2.917066    1.298372    
-20.800058    82.249870    93.240631    -12.927316    18.269737    97.208244    2.109970    -9.351193    0.235087    8.967193    8.534899    -0.607839    5.184498    17.392776    18.259193    -17.049301    7.869990    17.900995    4.085464    16.750078    2.464126    -47.227005    21.417366    -8.512424    31.803070    -29.383478    -111.392235    51.671925    13.864639    -12.729906    -3.165542    11.985466    -2.236345    33.118626    26.207674    32.957062    -14.890458    -34.956863    126.180489    -30.194311    -5.165561    -7.394282    -0.368659    -26.138269    -4.125499    -8.545887    30.813871    29.190601    -10.800225    15.808949    -16.679499    -2.202868    -7.733296    2.478526    -19.284100    -29.444956    -0.755509    1.471536    35.881500    9.127312    -9.427516    -11.150892    -19.817400    -1.297002    -2.884370    1.408502    
-20.830881    82.288780    93.333244    -12.981077    18.143682    97.030594    2.028856    -9.271650    0.207594    8.983498    8.466303    -0.623623    5.099265    17.347145    18.460211    -16.997238    7.716044    18.089882    4.209189    16.593298    2.393367    -47.162918    21.651489    -8.357550    32.445503    -28.986435    -109.619896    51.620605    13.660439    -12.701578    -3.275936    12.009738    -2.207024    33.167160    26.545677    32.843872    -15.124995    -35.027962    126.389488    -30.321152    -4.656040    -7.172184    -0.082146    -26.436605    -4.126469    -8.525018    31.128281    29.193600    -10.818005    16.102741    -16.669756    -2.239320    -7.817040    2.519976    -19.131464    -29.476620    -0.774643    1.557536    35.625950    9.261327    -9.391870    -11.062732    -19.779119    -1.409593    -2.845817    1.530685    
-20.880531    82.351570    93.419624    -13.047648    18.086100    96.924873    1.959852    -9.175153    0.194235    8.928021    8.394932    -0.619763    4.983386    17.294037    18.621023    -16.955795    7.572576    18.236816    4.324183    16.437527    2.322366    -47.043686    21.869459    -8.304520    33.055183    -28.522701    -107.831688    51.578938    13.451320    -12.701889    -3.388837    12.033057    -2.172273    33.234413    26.902994    32.718010    -15.375582    -35.137978    126.532097    -30.434698    -4.186396    -6.998935    0.251006    -26.911894    -4.049840    -8.631519    31.646090    29.297007    -10.826843    16.634594    -16.820969    -2.240456    -7.827416    2.521309    -19.091543    -29.469938    -0.861132    1.646724    35.321934    9.377830    -9.345648    -10.951055    -19.727365    -1.512011    -2.807721    1.641809    
-20.952410    82.441612    93.509865    -13.130692    18.086031    96.873222    1.892867    -9.050789    0.191748    8.798015    8.315156    -0.597302    4.831336    17.224571    18.762089    -16.918112    7.424343    18.361086    4.449000    16.265612    2.240065    -46.864616    22.095297    -8.337233    33.686897    -27.943619    -105.848808    51.546360    13.214437    -12.730562    -3.512074    12.059701    -2.129821    33.321312    27.321995    32.571812    -15.664536    -35.299526    126.627625    -30.554642    -3.714529    -6.861273    0.667915    -27.594414    -3.882363    -8.861122    32.402008    29.501211    -10.808408    17.429726    -17.138617    -2.210263    -7.749100    2.486928    -19.145523    -29.427162    -1.007941    1.746185    34.944176    9.483431    -9.287326    -10.806022    -19.657682    -1.610499    -2.767712    1.748647    
